<svg data-v-0dd9719b="" version="1.0" xmlns="http://www.w3.org/2000/svg" xmlns:xlink="http://www.w3.org/1999/xlink" width="100%" height="100%" viewBox="0 0 340.000000 250.000000" preserveAspectRatio="xMidYMid meet" color-interpolation-filters="sRGB" style="margin: auto;"> <rect data-v-0dd9719b="" x="0" y="0" width="100%" height="100%" fill="none" fill-opacity="1" class="background"></rect> <!----> <g data-v-0dd9719b="" class="iconmbgsvg" transform="translate(81.61499786376953,71.80700302124023)"><g fill="#fff" hollow-target="textNormalTran"><g opacity="0.55" transform="translate(32.13500213623047,0)"><g><rect fill="#fff" fill-opacity="0" stroke-width="2" x="0" y="0" width="112.5" height="106.38599676586571" class="image-rect"></rect> <svg filter="url(#colors8799373004)" x="0" y="0" width="112.5" height="106.38599676586571" filtersec="colorsf308677943" class="image-svg-svg primary" style="overflow: visible;"><svg version="1.1" id="Layer_1" xmlns="http://www.w3.org/2000/svg" xmlns:xlink="http://www.w3.org/1999/xlink" x="0px" y="0px" viewBox="2.430000066757202 3.700000047683716 445.1300048828125 420.94000244140625" enable-background="new 0 0 450 430" xml:space="preserve">
<polygon fill="#f0c244" points="249.2,280.59 297.65,232.14 297.65,120.63 379.08,202.07 225,356.15 70.92,202.07 152.35,120.63 
	152.35,232.14 200.81,280.6 200.81,3.7 2.43,202.07 225,424.64 447.56,202.07 249.2,3.7 "></polygon>
</svg></svg> <defs><filter id="colors8799373004"><feColorMatrix type="matrix" values="0 0 0 0 0.99609375  0 0 0 0 0.99609375  0 0 0 0 0.99609375  0 0 0 1 0" class="icon-fecolormatrix"></feColorMatrix></filter> <filter id="colorsf308677943"><feColorMatrix type="matrix" values="0 0 0 0 0.99609375  0 0 0 0 0.99609375  0 0 0 0 0.99609375  0 0 0 1 0" class="icon-fecolormatrix"></feColorMatrix></filter> <filter id="colorsb6883947060"><feColorMatrix type="matrix" values="0 0 0 0 0  0 0 0 0 0  0 0 0 0 0  0 0 0 1 0" class="icon-fecolormatrix"></feColorMatrix></filter></defs></g></g> <g transform="translate(0,30.126998901367188)"><g data-gra="path-name" fill-rule="" class="tp-name" transform="translate(0,0)"><g transform="scale(1)"><g><path d="M3.09 0L26.22 0 26.22-6 9.27-6 9.27-31.81 3.09-31.81ZM50.12-11.5L56.35-11.5 56.35-31.81 50.12-31.81ZM43.03 0.45C43.03 0.45 43.08-4.59 43.08-5.54 38.72-5.54 35.72-7.86 35.72-12.41L35.72-31.81 29.67-31.81 29.67-11.5C29.67-3.36 35.67 0.45 43.03 0.45ZM62.17 0L68.3 0 68.3-11.22 75.44-11.22 81.39 0 88.3 0 80.89-12.27C84.75-14.18 86.48-18.36 86.48-21.77 86.48-28.17 82.48-31.81 75.3-31.81L62.17-31.81 62.17-26.45 74.62-26.45C78.71-26.45 80.71-24.77 80.71-21.63 80.71-18.27 78.34-16.31 74.66-16.31L62.17-16.31ZM91.3-31.81L91.3-25.86 102.43-25.86C107.84-25.86 111.88-23.77 111.88-15.91 111.88-8 107.88-6 102.47-6L91.3-6 91.3 0 104.43 0C114.11 0 118.33-6.91 118.33-15.91 118.33-24.95 114.11-31.81 104.43-31.81ZM146.42-25.86L146.42-31.81 122.88-31.81 122.88-25.86ZM146.42-13.09L146.42-18.72 122.88-18.72 122.88-13.09ZM122.88 0L146.42 0 146.42-6 122.88-6ZM160.87 0L167.14 0 155.69-31.81 149.24-31.81ZM169.18-4.73L179.86-31.81 172.87-31.81 166.28-12.68Z" transform="translate(-3.0899999141693115, 31.809999465942383)"></path></g> <!----> <!----> <!----> <!----> <!----> <!----> <!----></g></g> <g data-gra="path-slogan" fill-rule="" class="tp-slogan" fill="#fff" transform="translate(68.82500267028809,38.2599983215332)"><!----> <!----> <g transform="scale(1, 1)"><g transform="scale(1)"><path d="M1.08 0L1.08-7.87L2.26-7.87L3.78-3.65L4.36-2.04L4.40-2.04L4.96-3.65L6.47-7.87L7.64-7.87L7.64 0L6.70 0L6.70-4.33Q6.70-4.86 6.74-5.50Q6.78-6.13 6.83-6.66L6.83-6.66L6.78-6.66L6.14-4.91L4.63-0.79L4.07-0.79L2.54-4.91L1.92-6.66L1.87-6.66Q1.91-6.13 1.96-5.50Q2.00-4.86 2.00-4.33L2.00-4.33L2.00 0L1.08 0ZM10.79-3.20L13.15-3.20L12.78-4.40Q12.56-5.06 12.37-5.72Q12.18-6.37 11.99-7.06L11.99-7.06L11.94-7.06Q11.76-6.37 11.57-5.72Q11.38-5.06 11.16-4.40L11.16-4.40L10.79-3.20ZM14.15 0L13.40-2.40L10.54-2.40L9.78 0L8.76 0L11.42-7.87L12.55-7.87L15.22 0L14.15 0ZM16.33 0L16.33-7.87L17.33-7.87L17.33-3.92L17.36-3.92L20.64-7.87L21.77-7.87L19.31-4.87L22.15 0L21.04 0L18.68-4.09L17.33-2.50L17.33 0L16.33 0ZM23.28 0L23.28-7.87L27.82-7.87L27.82-7.03L24.28-7.03L24.28-4.56L27.26-4.56L27.26-3.71L24.28-3.71L24.28-0.85L27.94-0.85L27.94 0L23.28 0ZM32.03 0L32.03-7.87L33.02-7.87L33.02 0L32.03 0ZM36.82 0L36.82-7.03L34.44-7.03L34.44-7.87L40.20-7.87L40.20-7.03L37.82-7.03L37.82 0L36.82 0Z" transform="translate(-1.08, 7.872)"></path></g></g></g></g></g></g><defs v-gra="od"></defs></svg>